<?xml version="1.0" encoding="UTF-8"?>
<!DOCTYPE svg PUBLIC "-//W3C//DTD SVG 1.1//EN" "http://www.w3.org/Graphics/SVG/1.1/DTD/svg11.dtd">
<svg xmlns="http://www.w3.org/2000/svg" version="1.1" width="500px" height="500px" style="shape-rendering:geometricPrecision; text-rendering:geometricPrecision; image-rendering:optimizeQuality; fill-rule:evenodd; clip-rule:evenodd" xmlns:xlink="http://www.w3.org/1999/xlink">
<g><path style="opacity:0.996" fill="#48280e" d="M 217.5,164.5 C 218.833,164.5 220.167,164.5 221.5,164.5C 221.5,163.167 221.5,161.833 221.5,160.5C 221.981,153.016 225.981,148.682 233.5,147.5C 236.315,148.245 239.149,148.912 242,149.5C 249.08,146.27 256.246,145.937 263.5,148.5C 266.472,146.032 269.806,144.198 273.5,143C 282.42,142.751 291.087,141.251 299.5,138.5C 303.375,138.87 306.375,140.704 308.5,144C 314.868,143.002 321.201,143.335 327.5,145C 330.902,146.4 333.736,148.567 336,151.5C 337.167,156.667 340.333,159.833 345.5,161C 350.423,166.236 353.756,172.402 355.5,179.5C 366.595,187.419 374.428,197.753 379,210.5C 379.667,214.167 379.667,217.833 379,221.5C 378.215,223.286 377.049,224.786 375.5,226C 312.211,273.977 248.211,320.977 183.5,367C 162.358,378.106 143.024,375.44 125.5,359C 111.955,346.547 105.955,331.047 107.5,312.5C 107.402,299.552 109.235,286.885 113,274.5C 119.608,254.287 128.608,235.287 140,217.5C 141.011,216.663 142.178,216.33 143.5,216.5C 143.047,212.307 141.881,208.307 140,204.5C 138.407,199.095 140.407,196.095 146,195.5C 149.317,196.802 152.65,198.136 156,199.5C 157.225,199.138 158.391,198.638 159.5,198C 160.734,180.429 170.067,170.096 187.5,167C 193.199,166.258 198.866,166.425 204.5,167.5C 208.652,165.712 212.986,164.712 217.5,164.5 Z"/></g>
<g><path style="opacity:1" fill="#e3ddd6" d="M 366.5,204.5 C 351.765,182.603 331.765,167.77 306.5,160C 298.044,158.409 289.711,156.909 281.5,155.5C 289.168,154.176 296.835,154.343 304.5,156C 327.101,163.281 346.601,175.448 363,192.5C 365.416,195.663 367.582,198.996 369.5,202.5C 368.643,203.425 367.643,204.092 366.5,204.5 Z"/></g>
<g><path style="opacity:1" fill="#e9940e" d="M 281.5,155.5 C 289.711,156.909 298.044,158.409 306.5,160C 331.765,167.77 351.765,182.603 366.5,204.5C 362.147,208.852 357.481,212.852 352.5,216.5C 354.421,217.641 356.421,217.808 358.5,217C 362.197,214.158 365.863,211.325 369.5,208.5C 369.932,209.71 370.599,210.71 371.5,211.5C 366.488,216.51 361.155,221.177 355.5,225.5C 352.297,218.971 347.963,213.138 342.5,208C 328.775,193.469 312.108,184.136 292.5,180C 279.883,178.238 267.217,177.072 254.5,176.5C 252.833,176.5 251.167,176.5 249.5,176.5C 235.274,176.456 221.274,178.122 207.5,181.5C 212.274,177.604 217.608,174.437 223.5,172C 242.317,164.63 261.65,159.13 281.5,155.5 Z"/></g>
<g><path style="opacity:0.129" fill="#b99744" d="M 221.5,160.5 C 221.5,161.833 221.5,163.167 221.5,164.5C 220.167,164.5 218.833,164.5 217.5,164.5C 218.209,163.596 219.209,163.263 220.5,163.5C 220.263,162.209 220.596,161.209 221.5,160.5 Z"/></g>
<g><path style="opacity:1" fill="#6da13f" d="M 145.5,248.5 C 147.099,248.768 148.432,248.434 149.5,247.5C 153.071,247.592 154.238,245.926 153,242.5C 148.939,238.201 145.773,233.368 143.5,228C 143.585,226.893 143.919,225.893 144.5,225C 146.433,224.749 148.266,224.249 150,223.5C 151.173,216.347 149.84,209.681 146,203.5C 145.219,202.056 145.386,200.723 146.5,199.5C 154.111,203.842 161.111,202.842 167.5,196.5C 171.299,198.422 175.299,198.922 179.5,198C 181.945,194.792 181.945,191.459 179.5,188C 180.09,185.743 181.423,184.076 183.5,183C 192.833,178 202.167,173 211.5,168C 216.736,166.661 222.07,166.161 227.5,166.5C 227.335,162.818 227.501,159.152 228,155.5C 228.465,154.069 229.299,152.903 230.5,152C 233.678,151.555 236.845,151.722 240,152.5C 244.476,151.423 248.976,150.423 253.5,149.5C 261.252,154.316 267.918,153.149 273.5,146C 281.513,145.949 289.346,144.782 297,142.5C 300.603,142.271 302.436,143.938 302.5,147.5C 306.835,147.262 311.169,146.929 315.5,146.5C 324.5,145.84 330.167,149.84 332.5,158.5C 336.166,160.559 339.666,162.893 343,165.5C 344.665,168.078 345.665,170.745 346,173.5C 326.652,157.607 304.486,150.774 279.5,153C 257.458,156.942 236.124,163.275 215.5,172C 202.973,177.19 192.806,185.357 185,196.5C 168.128,223.924 157.128,253.591 152,285.5C 151.561,304.543 151.894,323.543 153,342.5C 152.33,346.011 151.163,349.344 149.5,352.5C 146.526,354.178 144.859,353.345 144.5,350C 144.658,347.851 145.492,346.017 147,344.5C 147.769,341.901 147.602,339.401 146.5,337C 148.345,335.577 150.345,334.41 152.5,333.5C 148.576,331.412 145.409,328.412 143,324.5C 141.708,320.382 142.875,317.215 146.5,315C 144.214,312.544 142.547,309.71 141.5,306.5C 141.947,303.264 143.614,300.931 146.5,299.5C 142.397,296.296 142.563,293.296 147,290.5C 147.958,288.801 148.458,286.967 148.5,285C 145.955,279.276 143.621,273.442 141.5,267.5C 141.582,264.907 142.748,262.907 145,261.5C 144.873,256.988 145.04,252.655 145.5,248.5 Z"/></g>
<g><path style="opacity:1" fill="#aa2501" d="M 185.5,169.5 C 190.511,169.334 195.511,169.501 200.5,170C 191.75,174.79 183.25,179.957 175,185.5C 174.722,189.194 174.722,192.861 175,196.5C 172.478,193.978 169.978,191.478 167.5,189C 170.271,179.4 176.271,172.9 185.5,169.5 Z"/></g>
<g><path style="opacity:1" fill="#f8af2c" d="M 249.5,176.5 C 251.011,178.441 253.011,178.941 255.5,178C 254.944,177.617 254.611,177.117 254.5,176.5C 267.217,177.072 279.883,178.238 292.5,180C 312.108,184.136 328.775,193.469 342.5,208C 347.963,213.138 352.297,218.971 355.5,225.5C 351.863,228.325 348.197,231.158 344.5,234C 346.5,234.667 348.5,234.667 350.5,234C 353.379,231.615 356.379,229.448 359.5,227.5C 360.995,227.989 362.329,228.655 363.5,229.5C 302.062,275.724 240.062,321.224 177.5,366C 174.691,367.741 171.691,368.908 168.5,369.5C 159.138,370.355 150.138,369.022 141.5,365.5C 141.389,364.883 141.056,364.383 140.5,364C 151.297,360.866 157.464,353.7 159,342.5C 157.978,323.525 157.645,304.525 158,285.5C 162.788,254.272 173.455,225.272 190,198.5C 194.4,191.266 200.233,185.599 207.5,181.5C 221.274,178.122 235.274,176.456 249.5,176.5 Z"/></g>
<g><path style="opacity:1" fill="#5a3410" d="M 249.5,176.5 C 251.167,176.5 252.833,176.5 254.5,176.5C 254.611,177.117 254.944,177.617 255.5,178C 253.011,178.941 251.011,178.441 249.5,176.5 Z"/></g>
<g><path style="opacity:1" fill="#532d0c" d="M 312.5,179.5 C 313.5,179.5 314.5,179.5 315.5,179.5C 315.616,182.91 313.95,184.244 310.5,183.5C 310.527,181.801 311.194,180.467 312.5,179.5 Z"/></g>
<g><path style="opacity:1" fill="#48260c" d="M 282.5,192.5 C 284.288,192.215 285.955,192.548 287.5,193.5C 286.332,195.217 284.665,195.884 282.5,195.5C 282.5,194.5 282.5,193.5 282.5,192.5 Z"/></g>
<g><path style="opacity:1" fill="#5e3811" d="M 211.5,205.5 C 213.288,205.215 214.955,205.548 216.5,206.5C 215.332,208.217 213.665,208.884 211.5,208.5C 211.5,207.5 211.5,206.5 211.5,205.5 Z"/></g>
<g><path style="opacity:1" fill="#e6e0d9" d="M 371.5,211.5 C 370.599,210.71 369.932,209.71 369.5,208.5C 370.15,208.196 370.817,207.863 371.5,207.5C 372.782,208.958 372.782,210.292 371.5,211.5 Z"/></g>
<g><path style="opacity:1" fill="#5e3811" d="M 231.5,215.5 C 236.276,215.671 236.609,216.671 232.5,218.5C 230.197,218.124 229.863,217.124 231.5,215.5 Z"/></g>
<g><path style="opacity:1" fill="#4f2c0e" d="M 296.5,216.5 C 298.199,216.34 299.866,216.506 301.5,217C 299.728,218.487 297.728,218.82 295.5,218C 296.056,217.617 296.389,217.117 296.5,216.5 Z"/></g>
<g><path style="opacity:1" fill="#df8d0c" d="M 363.5,229.5 C 362.329,228.655 360.995,227.989 359.5,227.5C 363.495,223.51 367.829,219.844 372.5,216.5C 373.663,218.55 373.496,220.55 372,222.5C 369.412,225.2 366.579,227.533 363.5,229.5 Z"/></g>
<g><path style="opacity:1" fill="#4c290d" d="M 193.5,232.5 C 198.276,232.671 198.609,233.671 194.5,235.5C 192.197,235.124 191.863,234.124 193.5,232.5 Z"/></g>
<g><path style="opacity:1" fill="#c0780c" d="M 137.5,232.5 C 138.478,232.811 139.145,233.478 139.5,234.5C 133.833,241.199 133.166,240.532 137.5,232.5 Z"/></g>
<g><path style="opacity:1" fill="#a02502" d="M 141.5,238.5 C 144.621,239.288 146.288,241.288 146.5,244.5C 142.83,244.327 140.33,245.993 139,249.5C 139.108,253.157 139.108,256.823 139,260.5C 136.51,252.709 137.343,245.375 141.5,238.5 Z"/></g>
<g><path style="opacity:1" fill="#4d2a0d" d="M 256.5,244.5 C 258.288,244.215 259.955,244.548 261.5,245.5C 260.667,245.833 259.833,246.167 259,246.5C 257.624,246.316 256.791,245.649 256.5,244.5 Z"/></g>
<g><path style="opacity:1" fill="#4f2b0e" d="M 315.5,244.5 C 317.167,244.5 318.833,244.5 320.5,244.5C 320.5,245.833 320.5,247.167 320.5,248.5C 318.801,248.66 317.134,248.494 315.5,248C 314.316,246.855 314.316,245.688 315.5,244.5 Z"/></g>
<g><path style="opacity:1" fill="#963006" d="M 149.5,247.5 C 148.432,248.434 147.099,248.768 145.5,248.5C 145.62,247.414 146.287,246.747 147.5,246.5C 148.416,246.543 149.083,246.876 149.5,247.5 Z"/></g>
<g><path style="opacity:1" fill="#57320f" d="M 218.5,245.5 C 220.288,245.215 221.955,245.548 223.5,246.5C 222.667,246.833 221.833,247.167 221,247.5C 219.624,247.316 218.791,246.649 218.5,245.5 Z"/></g>
<g><path style="opacity:1" fill="#e38f0c" d="M 131.5,244.5 C 131.546,247.929 131.712,251.596 132,255.5C 132.784,259.05 133.617,262.55 134.5,266C 123.071,275.416 121.405,286.416 129.5,299C 127.083,300.663 125.25,302.829 124,305.5C 122.62,310.595 120.953,315.595 119,320.5C 118.157,326.161 119.657,331.161 123.5,335.5C 122.185,337.316 120.685,338.983 119,340.5C 115.927,334.94 114.26,328.94 114,322.5C 112.502,294.821 118.335,268.821 131.5,244.5 Z"/></g>
<g><path style="opacity:1" fill="#603911" d="M 276.5,259.5 C 281.623,259.899 281.79,260.899 277,262.5C 273.993,262.001 273.826,261.001 276.5,259.5 Z"/></g>
<g><path style="opacity:1" fill="#49270d" d="M 201.5,271.5 C 203.517,270.126 205.517,270.293 207.5,272C 205.402,272.678 203.402,272.511 201.5,271.5 Z"/></g>
<g><path style="opacity:1" fill="#542102" d="M 136.5,276.5 C 140.204,278.21 142.204,281.21 142.5,285.5C 141.05,289.637 138.383,292.97 134.5,295.5C 133.112,293.891 132.112,292.058 131.5,290C 134.134,287.675 136.801,285.341 139.5,283C 135.933,281.925 132.933,282.758 130.5,285.5C 129.167,283.833 129.167,282.167 130.5,280.5C 132.813,279.5 134.813,278.166 136.5,276.5 Z"/></g>
<g><path style="opacity:1" fill="#4d2a0e" d="M 166.5,282.5 C 168.167,282.5 169.833,282.5 171.5,282.5C 170.808,290.142 170.308,297.808 170,305.5C 168.301,306.406 166.467,306.739 164.5,306.5C 164.015,298.339 164.682,290.339 166.5,282.5 Z"/></g>
<g><path style="opacity:1" fill="#46250c" d="M 215.5,285.5 C 217.288,285.215 218.955,285.548 220.5,286.5C 219.667,286.833 218.833,287.167 218,287.5C 216.624,287.316 215.791,286.649 215.5,285.5 Z"/></g>
<g><path style="opacity:1" fill="#4d2a0d" d="M 252.5,291.5 C 254.288,291.215 255.955,291.548 257.5,292.5C 256.667,292.833 255.833,293.167 255,293.5C 253.624,293.316 252.791,292.649 252.5,291.5 Z"/></g>
<g><path style="opacity:1" fill="#a72501" d="M 134.5,305.5 C 135.684,308.856 137.351,312.023 139.5,315C 139.054,316.726 138.221,318.226 137,319.5C 136.333,321.167 136.333,322.833 137,324.5C 138.769,328.266 141.269,331.433 144.5,334C 142.545,334.953 140.878,336.287 139.5,338C 141.405,338.826 141.739,339.993 140.5,341.5C 135.691,338.57 132.857,334.236 132,328.5C 131.029,320.619 131.862,312.952 134.5,305.5 Z"/></g>
<g><path style="opacity:1" fill="#48260c" d="M 167.5,322.5 C 169.5,322.5 171.5,322.5 173.5,322.5C 174.059,333.941 171.059,344.274 164.5,353.5C 162.5,354.833 160.5,354.833 158.5,353.5C 165.059,344.274 168.059,333.941 167.5,322.5 Z"/></g>
<g><path style="opacity:1" fill="#542f0f" d="M 201.5,331.5 C 203.288,331.215 204.955,331.548 206.5,332.5C 204.03,336.309 200.697,338.976 196.5,340.5C 195.833,340.167 195.167,339.833 194.5,339.5C 196.856,336.814 199.189,334.147 201.5,331.5 Z"/></g>
<g><path style="opacity:1" fill="#542101" d="M 127.5,337.5 C 131.586,340.386 135.919,343.052 140.5,345.5C 139.479,349.023 137.145,350.856 133.5,351C 132.333,352.167 131.167,353.333 130,354.5C 129.308,353.975 128.808,353.308 128.5,352.5C 129.971,349.864 131.637,347.364 133.5,345C 129.79,343.776 127.123,344.942 125.5,348.5C 124.16,347.312 123.493,345.812 123.5,344C 124.205,341.458 125.539,339.292 127.5,337.5 Z"/></g>
<g><path style="opacity:1" fill="#552101" d="M 142.5,359.5 C 140.5,359.5 138.5,359.5 136.5,359.5C 135.373,358.878 134.373,358.045 133.5,357C 134.88,355.075 136.38,353.241 138,351.5C 139.849,354.677 142.682,356.177 146.5,356C 145.295,357.376 143.962,358.542 142.5,359.5 Z"/></g>
<g><path style="opacity:1" fill="#c18220" d="M 136.5,359.5 C 138.5,359.5 140.5,359.5 142.5,359.5C 140.5,362.167 138.5,362.167 136.5,359.5 Z"/></g>
<g><path style="opacity:1" fill="#dccdba" d="M 141.5,365.5 C 150.138,369.022 159.138,370.355 168.5,369.5C 158.81,372.951 149.81,371.618 141.5,365.5 Z"/></g>
</svg>
