<svg xmlns="http://www.w3.org/2000/svg" xmlns:xlink="http://www.w3.org/1999/xlink" version="1.1" width="1000" height="1000" viewBox="0 0 1000 1000" xml:space="preserve">
<desc>Created with Fabric.js 3.5.0</desc>
<defs>
</defs>
<rect x="0" y="0" width="100%" height="100%" fill="rgba(255,255,255,0)"/>
<g transform="matrix(2.0814 0.2191 -0.2191 2.0814 508.3447 355.5478)" id="890424">
<g style="" vector-effect="non-scaling-stroke">
		<g transform="matrix(1 0 0 1 -6.6185 6.1085)">
<path style="stroke: none; stroke-width: 1; stroke-dasharray: none; stroke-linecap: butt; stroke-dashoffset: 0; stroke-linejoin: miter; stroke-miterlimit: 4; is-custom-font: none; font-file-url: none; fill: rgb(72,40,14); fill-rule: evenodd; opacity: 0.996;" transform=" translate(-243.3815, -256.1085)" d="M 217.5 164.5 C 218.833 164.5 220.167 164.5 221.5 164.5 C 221.5 163.167 221.5 161.833 221.5 160.5 C 221.981 153.016 225.981 148.682 233.5 147.5 C 236.315 148.245 239.149 148.912 242 149.5 C 249.08 146.27 256.246 145.937 263.5 148.5 C 266.472 146.032 269.806 144.198 273.5 143 C 282.42 142.751 291.087 141.251 299.5 138.5 C 303.375 138.87 306.375 140.704 308.5 144 C 314.868 143.002 321.201 143.335 327.5 145 C 330.902 146.4 333.736 148.567 336 151.5 C 337.167 156.667 340.333 159.833 345.5 161 C 350.423 166.236 353.756 172.402 355.5 179.5 C 366.595 187.419 374.428 197.753 379 210.5 C 379.667 214.167 379.667 217.833 379 221.5 C 378.215 223.286 377.049 224.786 375.5 226 C 312.211 273.977 248.211 320.977 183.5 367 C 162.358 378.106 143.024 375.44 125.5 359 C 111.955 346.547 105.955 331.047 107.5 312.5 C 107.402 299.552 109.235 286.885 113 274.5 C 119.608 254.287 128.608 235.287 140 217.5 C 141.011 216.663 142.178 216.33 143.5 216.5 C 143.047 212.307 141.881 208.307 140 204.5 C 138.407 199.095 140.407 196.095 146 195.5 C 149.317 196.802 152.65 198.136 156 199.5 C 157.225 199.138 158.391 198.638 159.5 198 C 160.734 180.429 170.067 170.096 187.5 167 C 193.199 166.258 198.866 166.425 204.5 167.5 C 208.652 165.712 212.986 164.712 217.5 164.5 Z" stroke-linecap="round"/>
</g>
		<g transform="matrix(1 0 0 1 75.5 -70.441)">
<path style="stroke: none; stroke-width: 1; stroke-dasharray: none; stroke-linecap: butt; stroke-dashoffset: 0; stroke-linejoin: miter; stroke-miterlimit: 4; is-custom-font: none; font-file-url: none; fill: rgb(227,221,214); fill-rule: evenodd; opacity: 1;" transform=" translate(-325.5, -179.5591)" d="M 366.5 204.5 C 351.765 182.603 331.765 167.77 306.5 160 C 298.044 158.409 289.711 156.909 281.5 155.5 C 289.168 154.176 296.835 154.343 304.5 156 C 327.101 163.281 346.601 175.448 363 192.5 C 365.416 195.663 367.582 198.996 369.5 202.5 C 368.643 203.425 367.643 204.092 366.5 204.5 Z" stroke-linecap="round"/>
</g>
		<g transform="matrix(1 0 0 1 39.5 -59.5)">
<path style="stroke: none; stroke-width: 1; stroke-dasharray: none; stroke-linecap: butt; stroke-dashoffset: 0; stroke-linejoin: miter; stroke-miterlimit: 4; is-custom-font: none; font-file-url: none; fill: rgb(233,148,14); fill-rule: evenodd; opacity: 1;" transform=" translate(-289.5, -190.5)" d="M 281.5 155.5 C 289.711 156.909 298.044 158.409 306.5 160 C 331.765 167.77 351.765 182.603 366.5 204.5 C 362.147 208.852 357.481 212.852 352.5 216.5 C 354.421 217.641 356.421 217.808 358.5 217 C 362.197 214.158 365.863 211.325 369.5 208.5 C 369.932 209.71 370.599 210.71 371.5 211.5 C 366.488 216.51 361.155 221.177 355.5 225.5 C 352.297 218.971 347.963 213.138 342.5 208 C 328.775 193.469 312.108 184.136 292.5 180 C 279.883 178.238 267.217 177.072 254.5 176.5 C 252.833 176.5 251.167 176.5 249.5 176.5 C 235.274 176.456 221.274 178.122 207.5 181.5 C 212.274 177.604 217.608 174.437 223.5 172 C 242.317 164.63 261.65 159.13 281.5 155.5 Z" stroke-linecap="round"/>
</g>
		<g transform="matrix(1 0 0 1 -30.5 -87.5)">
<path style="stroke: none; stroke-width: 1; stroke-dasharray: none; stroke-linecap: butt; stroke-dashoffset: 0; stroke-linejoin: miter; stroke-miterlimit: 4; is-custom-font: none; font-file-url: none; fill: rgb(185,151,68); fill-rule: evenodd; opacity: 0.129;" transform=" translate(-219.5, -162.5)" d="M 221.5 160.5 C 221.5 161.833 221.5 163.167 221.5 164.5 C 220.167 164.5 218.833 164.5 217.5 164.5 C 218.209 163.596 219.209 163.263 220.5 163.5 C 220.263 162.209 220.596 161.209 221.5 160.5 Z" stroke-linecap="round"/>
</g>
		<g transform="matrix(1 0 0 1 -6.25 -2.0898)">
<path style="stroke: none; stroke-width: 1; stroke-dasharray: none; stroke-linecap: butt; stroke-dashoffset: 0; stroke-linejoin: miter; stroke-miterlimit: 4; is-custom-font: none; font-file-url: none; fill: rgb(109,161,63); fill-rule: evenodd; opacity: 1;" transform=" translate(-243.75, -247.9101)" d="M 145.5 248.5 C 147.099 248.768 148.432 248.434 149.5 247.5 C 153.071 247.592 154.238 245.926 153 242.5 C 148.939 238.201 145.773 233.368 143.5 228 C 143.585 226.893 143.919 225.893 144.5 225 C 146.433 224.749 148.266 224.249 150 223.5 C 151.173 216.347 149.84 209.681 146 203.5 C 145.219 202.056 145.386 200.723 146.5 199.5 C 154.111 203.842 161.111 202.842 167.5 196.5 C 171.299 198.422 175.299 198.922 179.5 198 C 181.945 194.792 181.945 191.459 179.5 188 C 180.09 185.743 181.423 184.076 183.5 183 C 192.833 178 202.167 173 211.5 168 C 216.736 166.661 222.07 166.161 227.5 166.5 C 227.335 162.818 227.501 159.152 228 155.5 C 228.465 154.069 229.299 152.903 230.5 152 C 233.678 151.555 236.845 151.722 240 152.5 C 244.476 151.423 248.976 150.423 253.5 149.5 C 261.252 154.316 267.918 153.149 273.5 146 C 281.513 145.949 289.346 144.782 297 142.5 C 300.603 142.271 302.436 143.938 302.5 147.5 C 306.835 147.262 311.169 146.929 315.5 146.5 C 324.5 145.84 330.167 149.84 332.5 158.5 C 336.166 160.559 339.666 162.893 343 165.5 C 344.665 168.078 345.665 170.745 346 173.5 C 326.652 157.607 304.486 150.774 279.5 153 C 257.458 156.942 236.124 163.275 215.5 172 C 202.973 177.19 192.806 185.357 185 196.5 C 168.128 223.924 157.128 253.591 152 285.5 C 151.561 304.543 151.894 323.543 153 342.5 C 152.33 346.011 151.163 349.344 149.5 352.5 C 146.526 354.178 144.859 353.345 144.5 350 C 144.658 347.851 145.492 346.017 147 344.5 C 147.769 341.901 147.602 339.401 146.5 337 C 148.345 335.577 150.345 334.41 152.5 333.5 C 148.576 331.412 145.409 328.412 143 324.5 C 141.708 320.382 142.875 317.215 146.5 315 C 144.214 312.544 142.547 309.71 141.5 306.5 C 141.947 303.264 143.614 300.931 146.5 299.5 C 142.397 296.296 142.563 293.296 147 290.5 C 147.958 288.801 148.458 286.967 148.5 285 C 145.955 279.276 143.621 273.442 141.5 267.5 C 141.582 264.907 142.748 262.907 145 261.5 C 144.873 256.988 145.04 252.655 145.5 248.5 Z" stroke-linecap="round"/>
</g>
		<g transform="matrix(1 0 0 1 -66 -67.0311)">
<path style="stroke: none; stroke-width: 1; stroke-dasharray: none; stroke-linecap: butt; stroke-dashoffset: 0; stroke-linejoin: miter; stroke-miterlimit: 4; is-custom-font: none; font-file-url: none; fill: rgb(170,37,1); fill-rule: evenodd; opacity: 1;" transform=" translate(-184, -182.969)" d="M 185.5 169.5 C 190.511 169.334 195.511 169.501 200.5 170 C 191.75 174.79 183.25 179.957 175 185.5 C 174.722 189.194 174.722 192.861 175 196.5 C 172.478 193.978 169.978 191.478 167.5 189 C 170.271 179.4 176.271 172.9 185.5 169.5 Z" stroke-linecap="round"/>
</g>
		<g transform="matrix(1 0 0 1 2 23.1249)">
<path style="stroke: none; stroke-width: 1; stroke-dasharray: none; stroke-linecap: butt; stroke-dashoffset: 0; stroke-linejoin: miter; stroke-miterlimit: 4; is-custom-font: none; font-file-url: none; fill: rgb(248,175,44); fill-rule: evenodd; opacity: 1;" transform=" translate(-252, -273.1249)" d="M 249.5 176.5 C 251.011 178.441 253.011 178.941 255.5 178 C 254.944 177.617 254.611 177.117 254.5 176.5 C 267.217 177.072 279.883 178.238 292.5 180 C 312.108 184.136 328.775 193.469 342.5 208 C 347.963 213.138 352.297 218.971 355.5 225.5 C 351.863 228.325 348.197 231.158 344.5 234 C 346.5 234.667 348.5 234.667 350.5 234 C 353.379 231.615 356.379 229.448 359.5 227.5 C 360.995 227.989 362.329 228.655 363.5 229.5 C 302.062 275.724 240.062 321.224 177.5 366 C 174.691 367.741 171.691 368.908 168.5 369.5 C 159.138 370.355 150.138 369.022 141.5 365.5 C 141.389 364.883 141.056 364.383 140.5 364 C 151.297 360.866 157.464 353.7 159 342.5 C 157.978 323.525 157.645 304.525 158 285.5 C 162.788 254.272 173.455 225.272 190 198.5 C 194.4 191.266 200.233 185.599 207.5 181.5 C 221.274 178.122 235.274 176.456 249.5 176.5 Z" stroke-linecap="round"/>
</g>
		<g transform="matrix(1 0 0 1 2.5 -72.5196)">
<path style="stroke: none; stroke-width: 1; stroke-dasharray: none; stroke-linecap: butt; stroke-dashoffset: 0; stroke-linejoin: miter; stroke-miterlimit: 4; is-custom-font: none; font-file-url: none; fill: rgb(90,52,16); fill-rule: evenodd; opacity: 1;" transform=" translate(-252.5, -177.4804)" d="M 249.5 176.5 C 251.167 176.5 252.833 176.5 254.5 176.5 C 254.611 177.117 254.944 177.617 255.5 178 C 253.011 178.941 251.011 178.441 249.5 176.5 Z" stroke-linecap="round"/>
</g>
		<g transform="matrix(1 0 0 1 63.0028 -68.4001)">
<path style="stroke: none; stroke-width: 1; stroke-dasharray: none; stroke-linecap: butt; stroke-dashoffset: 0; stroke-linejoin: miter; stroke-miterlimit: 4; is-custom-font: none; font-file-url: none; fill: rgb(83,45,12); fill-rule: evenodd; opacity: 1;" transform=" translate(-313.0028, -181.5999)" d="M 312.5 179.5 C 313.5 179.5 314.5 179.5 315.5 179.5 C 315.616 182.91 313.95 184.244 310.5 183.5 C 310.527 181.801 311.194 180.467 312.5 179.5 Z" stroke-linecap="round"/>
</g>
		<g transform="matrix(1 0 0 1 35 -55.9967)">
<path style="stroke: none; stroke-width: 1; stroke-dasharray: none; stroke-linecap: butt; stroke-dashoffset: 0; stroke-linejoin: miter; stroke-miterlimit: 4; is-custom-font: none; font-file-url: none; fill: rgb(72,38,12); fill-rule: evenodd; opacity: 1;" transform=" translate(-285, -194.0033)" d="M 282.5 192.5 C 284.288 192.215 285.955 192.548 287.5 193.5 C 286.332 195.217 284.665 195.884 282.5 195.5 C 282.5 194.5 282.5 193.5 282.5 192.5 Z" stroke-linecap="round"/>
</g>
		<g transform="matrix(1 0 0 1 -36 -42.9967)">
<path style="stroke: none; stroke-width: 1; stroke-dasharray: none; stroke-linecap: butt; stroke-dashoffset: 0; stroke-linejoin: miter; stroke-miterlimit: 4; is-custom-font: none; font-file-url: none; fill: rgb(94,56,17); fill-rule: evenodd; opacity: 1;" transform=" translate(-214, -207.0033)" d="M 211.5 205.5 C 213.288 205.215 214.955 205.548 216.5 206.5 C 215.332 208.217 213.665 208.884 211.5 208.5 C 211.5 207.5 211.5 206.5 211.5 205.5 Z" stroke-linecap="round"/>
</g>
		<g transform="matrix(1 0 0 1 120.9808 -40.5)">
<path style="stroke: none; stroke-width: 1; stroke-dasharray: none; stroke-linecap: butt; stroke-dashoffset: 0; stroke-linejoin: miter; stroke-miterlimit: 4; is-custom-font: none; font-file-url: none; fill: rgb(230,224,217); fill-rule: evenodd; opacity: 1;" transform=" translate(-370.9808, -209.5)" d="M 371.5 211.5 C 370.599 210.71 369.932 209.71 369.5 208.5 C 370.15 208.196 370.817 207.863 371.5 207.5 C 372.782 208.958 372.782 210.292 371.5 211.5 Z" stroke-linecap="round"/>
</g>
		<g transform="matrix(1 0 0 1 -17.0846 -33)">
<path style="stroke: none; stroke-width: 1; stroke-dasharray: none; stroke-linecap: butt; stroke-dashoffset: 0; stroke-linejoin: miter; stroke-miterlimit: 4; is-custom-font: none; font-file-url: none; fill: rgb(94,56,17); fill-rule: evenodd; opacity: 1;" transform=" translate(-232.9154, -217)" d="M 231.5 215.5 C 236.276 215.671 236.609 216.671 232.5 218.5 C 230.197 218.124 229.863 217.124 231.5 215.5 Z" stroke-linecap="round"/>
</g>
		<g transform="matrix(1 0 0 1 48.5 -32.5608)">
<path style="stroke: none; stroke-width: 1; stroke-dasharray: none; stroke-linecap: butt; stroke-dashoffset: 0; stroke-linejoin: miter; stroke-miterlimit: 4; is-custom-font: none; font-file-url: none; fill: rgb(79,44,14); fill-rule: evenodd; opacity: 1;" transform=" translate(-298.5, -217.4392)" d="M 296.5 216.5 C 298.199 216.34 299.866 216.506 301.5 217 C 299.728 218.487 297.728 218.82 295.5 218 C 296.056 217.617 296.389 217.117 296.5 216.5 Z" stroke-linecap="round"/>
</g>
		<g transform="matrix(1 0 0 1 116.3814 -27)">
<path style="stroke: none; stroke-width: 1; stroke-dasharray: none; stroke-linecap: butt; stroke-dashoffset: 0; stroke-linejoin: miter; stroke-miterlimit: 4; is-custom-font: none; font-file-url: none; fill: rgb(223,141,12); fill-rule: evenodd; opacity: 1;" transform=" translate(-366.3814, -223)" d="M 363.5 229.5 C 362.329 228.655 360.995 227.989 359.5 227.5 C 363.495 223.51 367.829 219.844 372.5 216.5 C 373.663 218.55 373.496 220.55 372 222.5 C 369.412 225.2 366.579 227.533 363.5 229.5 Z" stroke-linecap="round"/>
</g>
		<g transform="matrix(1 0 0 1 -55.0846 -16)">
<path style="stroke: none; stroke-width: 1; stroke-dasharray: none; stroke-linecap: butt; stroke-dashoffset: 0; stroke-linejoin: miter; stroke-miterlimit: 4; is-custom-font: none; font-file-url: none; fill: rgb(76,41,13); fill-rule: evenodd; opacity: 1;" transform=" translate(-194.9154, -234)" d="M 193.5 232.5 C 198.276 232.671 198.609 233.671 194.5 235.5 C 192.197 235.124 191.863 234.124 193.5 232.5 Z" stroke-linecap="round"/>
</g>
		<g transform="matrix(1 0 0 1 -112.9086 -14.2153)">
<path style="stroke: none; stroke-width: 1; stroke-dasharray: none; stroke-linecap: butt; stroke-dashoffset: 0; stroke-linejoin: miter; stroke-miterlimit: 4; is-custom-font: none; font-file-url: none; fill: rgb(192,120,12); fill-rule: evenodd; opacity: 1;" transform=" translate(-137.0915, -235.7847)" d="M 137.5 232.5 C 138.478 232.811 139.145 233.478 139.5 234.5 C 133.833 241.199 133.166 240.532 137.5 232.5 Z" stroke-linecap="round"/>
</g>
		<g transform="matrix(1 0 0 1 -107.9496 -0.5)">
<path style="stroke: none; stroke-width: 1; stroke-dasharray: none; stroke-linecap: butt; stroke-dashoffset: 0; stroke-linejoin: miter; stroke-miterlimit: 4; is-custom-font: none; font-file-url: none; fill: rgb(160,37,2); fill-rule: evenodd; opacity: 1;" transform=" translate(-142.0503, -249.5)" d="M 141.5 238.5 C 144.621 239.288 146.288 241.288 146.5 244.5 C 142.83 244.327 140.33 245.993 139 249.5 C 139.108 253.157 139.108 256.823 139 260.5 C 136.51 252.709 137.343 245.375 141.5 238.5 Z" stroke-linecap="round"/>
</g>
		<g transform="matrix(1 0 0 1 9 -4.5493)">
<path style="stroke: none; stroke-width: 1; stroke-dasharray: none; stroke-linecap: butt; stroke-dashoffset: 0; stroke-linejoin: miter; stroke-miterlimit: 4; is-custom-font: none; font-file-url: none; fill: rgb(77,42,13); fill-rule: evenodd; opacity: 1;" transform=" translate(-259, -245.4507)" d="M 256.5 244.5 C 258.288 244.215 259.955 244.548 261.5 245.5 C 260.667 245.833 259.833 246.167 259 246.5 C 257.624 246.316 256.791 245.649 256.5 244.5 Z" stroke-linecap="round"/>
</g>
		<g transform="matrix(1 0 0 1 67.556 -3.4706)">
<path style="stroke: none; stroke-width: 1; stroke-dasharray: none; stroke-linecap: butt; stroke-dashoffset: 0; stroke-linejoin: miter; stroke-miterlimit: 4; is-custom-font: none; font-file-url: none; fill: rgb(79,43,14); fill-rule: evenodd; opacity: 1;" transform=" translate(-317.556, -246.5294)" d="M 315.5 244.5 C 317.167 244.5 318.833 244.5 320.5 244.5 C 320.5 245.833 320.5 247.167 320.5 248.5 C 318.801 248.66 317.134 248.494 315.5 248 C 314.316 246.855 314.316 245.688 315.5 244.5 Z" stroke-linecap="round"/>
</g>
		<g transform="matrix(1 0 0 1 -102.5 -2.4552)">
<path style="stroke: none; stroke-width: 1; stroke-dasharray: none; stroke-linecap: butt; stroke-dashoffset: 0; stroke-linejoin: miter; stroke-miterlimit: 4; is-custom-font: none; font-file-url: none; fill: rgb(150,48,6); fill-rule: evenodd; opacity: 1;" transform=" translate(-147.5, -247.5448)" d="M 149.5 247.5 C 148.432 248.434 147.099 248.768 145.5 248.5 C 145.62 247.414 146.287 246.747 147.5 246.5 C 148.416 246.543 149.083 246.876 149.5 247.5 Z" stroke-linecap="round"/>
</g>
		<g transform="matrix(1 0 0 1 -29 -3.5493)">
<path style="stroke: none; stroke-width: 1; stroke-dasharray: none; stroke-linecap: butt; stroke-dashoffset: 0; stroke-linejoin: miter; stroke-miterlimit: 4; is-custom-font: none; font-file-url: none; fill: rgb(87,50,15); fill-rule: evenodd; opacity: 1;" transform=" translate(-221, -246.4507)" d="M 218.5 245.5 C 220.288 245.215 221.955 245.548 223.5 246.5 C 222.667 246.833 221.833 247.167 221 247.5 C 219.624 247.316 218.791 246.649 218.5 245.5 Z" stroke-linecap="round"/>
</g>
		<g transform="matrix(1 0 0 1 -125.8648 42.5)">
<path style="stroke: none; stroke-width: 1; stroke-dasharray: none; stroke-linecap: butt; stroke-dashoffset: 0; stroke-linejoin: miter; stroke-miterlimit: 4; is-custom-font: none; font-file-url: none; fill: rgb(227,143,12); fill-rule: evenodd; opacity: 1;" transform=" translate(-124.1352, -292.5)" d="M 131.5 244.5 C 131.546 247.929 131.712 251.596 132 255.5 C 132.784 259.05 133.617 262.55 134.5 266 C 123.071 275.416 121.405 286.416 129.5 299 C 127.083 300.663 125.25 302.829 124 305.5 C 122.62 310.595 120.953 315.595 119 320.5 C 118.157 326.161 119.657 331.161 123.5 335.5 C 122.185 337.316 120.685 338.983 119 340.5 C 115.927 334.94 114.26 328.94 114 322.5 C 112.502 294.821 118.335 268.821 131.5 244.5 Z" stroke-linecap="round"/>
</g>
		<g transform="matrix(1 0 0 1 27.5419 11)">
<path style="stroke: none; stroke-width: 1; stroke-dasharray: none; stroke-linecap: butt; stroke-dashoffset: 0; stroke-linejoin: miter; stroke-miterlimit: 4; is-custom-font: none; font-file-url: none; fill: rgb(96,57,17); fill-rule: evenodd; opacity: 1;" transform=" translate(-277.5419, -261)" d="M 276.5 259.5 C 281.623 259.899 281.79 260.899 277 262.5 C 273.993 262.001 273.826 261.001 276.5 259.5 Z" stroke-linecap="round"/>
</g>
		<g transform="matrix(1 0 0 1 -45.5 21.4946)">
<path style="stroke: none; stroke-width: 1; stroke-dasharray: none; stroke-linecap: butt; stroke-dashoffset: 0; stroke-linejoin: miter; stroke-miterlimit: 4; is-custom-font: none; font-file-url: none; fill: rgb(73,39,13); fill-rule: evenodd; opacity: 1;" transform=" translate(-204.5, -271.4946)" d="M 201.5 271.5 C 203.517 270.126 205.517 270.293 207.5 272 C 205.402 272.678 203.402 272.511 201.5 271.5 Z" stroke-linecap="round"/>
</g>
		<g transform="matrix(1 0 0 1 -113.9999 36)">
<path style="stroke: none; stroke-width: 1; stroke-dasharray: none; stroke-linecap: butt; stroke-dashoffset: 0; stroke-linejoin: miter; stroke-miterlimit: 4; is-custom-font: none; font-file-url: none; fill: rgb(84,33,2); fill-rule: evenodd; opacity: 1;" transform=" translate(-136.0001, -286)" d="M 136.5 276.5 C 140.204 278.21 142.204 281.21 142.5 285.5 C 141.05 289.637 138.383 292.97 134.5 295.5 C 133.112 293.891 132.112 292.058 131.5 290 C 134.134 287.675 136.801 285.341 139.5 283 C 135.933 281.925 132.933 282.758 130.5 285.5 C 129.167 283.833 129.167 282.167 130.5 280.5 C 132.813 279.5 134.813 278.166 136.5 276.5 Z" stroke-linecap="round"/>
</g>
		<g transform="matrix(1 0 0 1 -82.0766 44.5374)">
<path style="stroke: none; stroke-width: 1; stroke-dasharray: none; stroke-linecap: butt; stroke-dashoffset: 0; stroke-linejoin: miter; stroke-miterlimit: 4; is-custom-font: none; font-file-url: none; fill: rgb(77,42,14); fill-rule: evenodd; opacity: 1;" transform=" translate(-167.9234, -294.5374)" d="M 166.5 282.5 C 168.167 282.5 169.833 282.5 171.5 282.5 C 170.808 290.142 170.308 297.808 170 305.5 C 168.301 306.406 166.467 306.739 164.5 306.5 C 164.015 298.339 164.682 290.339 166.5 282.5 Z" stroke-linecap="round"/>
</g>
		<g transform="matrix(1 0 0 1 -32 36.4507)">
<path style="stroke: none; stroke-width: 1; stroke-dasharray: none; stroke-linecap: butt; stroke-dashoffset: 0; stroke-linejoin: miter; stroke-miterlimit: 4; is-custom-font: none; font-file-url: none; fill: rgb(70,37,12); fill-rule: evenodd; opacity: 1;" transform=" translate(-218, -286.4507)" d="M 215.5 285.5 C 217.288 285.215 218.955 285.548 220.5 286.5 C 219.667 286.833 218.833 287.167 218 287.5 C 216.624 287.316 215.791 286.649 215.5 285.5 Z" stroke-linecap="round"/>
</g>
		<g transform="matrix(1 0 0 1 5 42.4507)">
<path style="stroke: none; stroke-width: 1; stroke-dasharray: none; stroke-linecap: butt; stroke-dashoffset: 0; stroke-linejoin: miter; stroke-miterlimit: 4; is-custom-font: none; font-file-url: none; fill: rgb(77,42,13); fill-rule: evenodd; opacity: 1;" transform=" translate(-255, -292.4507)" d="M 252.5 291.5 C 254.288 291.215 255.955 291.548 257.5 292.5 C 256.667 292.833 255.833 293.167 255 293.5 C 253.624 293.316 252.791 292.649 252.5 291.5 Z" stroke-linecap="round"/>
</g>
		<g transform="matrix(1 0 0 1 -111.946 73.5)">
<path style="stroke: none; stroke-width: 1; stroke-dasharray: none; stroke-linecap: butt; stroke-dashoffset: 0; stroke-linejoin: miter; stroke-miterlimit: 4; is-custom-font: none; font-file-url: none; fill: rgb(167,37,1); fill-rule: evenodd; opacity: 1;" transform=" translate(-138.054, -323.5)" d="M 134.5 305.5 C 135.684 308.856 137.351 312.023 139.5 315 C 139.054 316.726 138.221 318.226 137 319.5 C 136.333 321.167 136.333 322.833 137 324.5 C 138.769 328.266 141.269 331.433 144.5 334 C 142.545 334.953 140.878 336.287 139.5 338 C 141.405 338.826 141.739 339.993 140.5 341.5 C 135.691 338.57 132.857 334.236 132 328.5 C 131.029 320.619 131.862 312.952 134.5 305.5 Z" stroke-linecap="round"/>
</g>
		<g transform="matrix(1 0 0 1 -83.9671 88.4999)">
<path style="stroke: none; stroke-width: 1; stroke-dasharray: none; stroke-linecap: butt; stroke-dashoffset: 0; stroke-linejoin: miter; stroke-miterlimit: 4; is-custom-font: none; font-file-url: none; fill: rgb(72,38,12); fill-rule: evenodd; opacity: 1;" transform=" translate(-166.0329, -338.4999)" d="M 167.5 322.5 C 169.5 322.5 171.5 322.5 173.5 322.5 C 174.059 333.941 171.059 344.274 164.5 353.5 C 162.5 354.833 160.5 354.833 158.5 353.5 C 165.059 344.274 168.059 333.941 167.5 322.5 Z" stroke-linecap="round"/>
</g>
		<g transform="matrix(1 0 0 1 -49.5 85.9507)">
<path style="stroke: none; stroke-width: 1; stroke-dasharray: none; stroke-linecap: butt; stroke-dashoffset: 0; stroke-linejoin: miter; stroke-miterlimit: 4; is-custom-font: none; font-file-url: none; fill: rgb(84,47,15); fill-rule: evenodd; opacity: 1;" transform=" translate(-200.5, -335.9507)" d="M 201.5 331.5 C 203.288 331.215 204.955 331.548 206.5 332.5 C 204.03 336.309 200.697 338.976 196.5 340.5 C 195.833 340.167 195.167 339.833 194.5 339.5 C 196.856 336.814 199.189 334.147 201.5 331.5 Z" stroke-linecap="round"/>
</g>
		<g transform="matrix(1 0 0 1 -118.0001 96)">
<path style="stroke: none; stroke-width: 1; stroke-dasharray: none; stroke-linecap: butt; stroke-dashoffset: 0; stroke-linejoin: miter; stroke-miterlimit: 4; is-custom-font: none; font-file-url: none; fill: rgb(84,33,1); fill-rule: evenodd; opacity: 1;" transform=" translate(-132, -346)" d="M 127.5 337.5 C 131.586 340.386 135.919 343.052 140.5 345.5 C 139.479 349.023 137.145 350.856 133.5 351 C 132.333 352.167 131.167 353.333 130 354.5 C 129.308 353.975 128.808 353.308 128.5 352.5 C 129.971 349.864 131.637 347.364 133.5 345 C 129.79 343.776 127.123 344.942 125.5 348.5 C 124.16 347.312 123.493 345.812 123.5 344 C 124.205 341.458 125.539 339.292 127.5 337.5 Z" stroke-linecap="round"/>
</g>
		<g transform="matrix(1 0 0 1 -110 105.5)">
<path style="stroke: none; stroke-width: 1; stroke-dasharray: none; stroke-linecap: butt; stroke-dashoffset: 0; stroke-linejoin: miter; stroke-miterlimit: 4; is-custom-font: none; font-file-url: none; fill: rgb(85,33,1); fill-rule: evenodd; opacity: 1;" transform=" translate(-140, -355.5)" d="M 142.5 359.5 C 140.5 359.5 138.5 359.5 136.5 359.5 C 135.373 358.878 134.373 358.045 133.5 357 C 134.88 355.075 136.38 353.241 138 351.5 C 139.849 354.677 142.682 356.177 146.5 356 C 145.295 357.376 143.962 358.542 142.5 359.5 Z" stroke-linecap="round"/>
</g>
		<g transform="matrix(1 0 0 1 -110.5 110.5001)">
<path style="stroke: none; stroke-width: 1; stroke-dasharray: none; stroke-linecap: butt; stroke-dashoffset: 0; stroke-linejoin: miter; stroke-miterlimit: 4; is-custom-font: none; font-file-url: none; fill: rgb(193,130,32); fill-rule: evenodd; opacity: 1;" transform=" translate(-139.5, -360.5001)" d="M 136.5 359.5 C 138.5 359.5 140.5 359.5 142.5 359.5 C 140.5 362.167 138.5 362.167 136.5 359.5 Z" stroke-linecap="round"/>
</g>
		<g transform="matrix(1 0 0 1 -95 118.4335)">
<path style="stroke: none; stroke-width: 1; stroke-dasharray: none; stroke-linecap: butt; stroke-dashoffset: 0; stroke-linejoin: miter; stroke-miterlimit: 4; is-custom-font: none; font-file-url: none; fill: rgb(220,205,186); fill-rule: evenodd; opacity: 1;" transform=" translate(-155, -368.4335)" d="M 141.5 365.5 C 150.138 369.022 159.138 370.355 168.5 369.5 C 158.81 372.951 149.81 371.618 141.5 365.5 Z" stroke-linecap="round"/>
</g>
</g>
</g>
<g transform="matrix(1 0 0 1 508.2994 724.8678)" style="" id="370170">
		
<path xml:space="preserve" font-family="Amatic SC" font-size="200" font-style="normal" font-weight="bold" style="stroke: none; stroke-width: 1; stroke-dasharray: none; stroke-linecap: butt; stroke-dashoffset: 0; stroke-linejoin: miter; stroke-miterlimit: 4; is-custom-font: none; font-file-url: none; fill: rgb(255,255,255); fill-rule: nonzero; opacity: 1; white-space: pre;" d="M-265.90 90.43Q-269.30 90.43-274.30 87.63L-274.30 87.63L-274.30 87.43Q-279.70 85.03-281.90 78.63L-281.90 78.63Q-283.30 73.43-284.50 66.43L-284.50 66.43Q-285.30 61.63-285.50 60.83L-285.50 60.83L-293.70 60.83Q-304.30 53.83-309.30 42.43L-309.30 42.43Q-311.50 37.63-312.90 31.43Q-314.30 25.23-314.70 19.23L-314.70 19.23Q-315.10 15.63-315.10 6.83L-315.10 6.83L-314.70-9.57Q-314.10-20.37-314.10-25.77L-314.10-25.77L-314.30-32.17L-314.30-39.97Q-314.30-51.97-313.50-59.17L-313.50-59.17Q-312.30-69.17-309.30-77.37L-309.30-77.37Q-306.10-85.97-299.70-89.37L-299.70-89.37Q-296.30-91.17-292.30-91.17L-292.30-91.17Q-286.90-91.17-282.30-88.97Q-277.70-86.77-274.30-82.97L-274.30-82.97Q-268.90-76.57-265.50-62.17L-265.50-62.17Q-263.10-49.17-262.70-35.77L-262.70-35.77Q-262.50-31.57-262.50-21.97L-262.50-21.97L-262.50-11.17Q-262.70-6.57-262.70-1.57L-262.70-1.57L-262.70 7.43Q-262.70 25.43-265.00 35.43Q-267.30 45.43-274.90 56.03L-274.90 56.03L-274.10 60.03Q-272.90 67.83-271.50 72.23L-271.50 72.23Q-269.50 79.43-266.50 79.43L-266.50 79.43L-265.70 79.43Q-262.10 79.43-260.10 79.83L-260.10 79.83Q-257.10 80.83-257.10 84.23L-257.10 84.23Q-257.10 90.43-265.90 90.43L-265.90 90.43ZM-286.50 55.03L-286.50 54.83Q-285.10 52.23-281.10 52.23L-281.10 52.23L-281.10 52.43Q-273.70 45.63-273.70 30.83L-273.70 30.83L-273.70-22.97Q-273.70-35.77-274.30-44.37L-274.30-44.37Q-275.10-55.57-277.90-65.37L-277.90-65.37Q-279.30-70.37-281.40-73.57Q-283.50-76.77-286.70-78.97L-286.70-78.97Q-290.10-81.17-293.90-81.17L-293.90-81.17Q-297.50-81.17-299.90-70.77L-299.90-70.77Q-303.90-54.97-304.90-19.17L-304.90-19.17Q-305.30-5.17-305.30-0.97L-305.30-0.97Q-305.30 7.63-304.30 18.83L-304.30 18.83Q-303.30 31.03-299.10 42.43L-299.10 42.43Q-297.10 48.03-293.90 51.33Q-290.70 54.63-286.50 55.03L-286.50 55.03Z"/><path xml:space="preserve" font-family="Amatic SC" font-size="200" font-style="normal" font-weight="bold" style="stroke: none; stroke-width: 1; stroke-dasharray: none; stroke-linecap: butt; stroke-dashoffset: 0; stroke-linejoin: miter; stroke-miterlimit: 4; is-custom-font: none; font-file-url: none; fill: rgb(255,255,255); fill-rule: nonzero; opacity: 1; white-space: pre;" d="M-205.30 65.83Q-210.10 65.83-213.90 63.73Q-217.70 61.63-220.10 57.63L-220.10 57.63Q-224.90 49.23-226.30 38.63L-226.30 38.63Q-227.70 29.43-227.70 16.63L-227.70 16.63Q-228.30-4.97-228.30-36.17L-228.30-36.17L-228.50-51.57Q-228.70-52.77-228.70-55.57L-228.70-55.57Q-229.10-63.17-229.10-64.77L-229.10-64.77Q-227.30-68.97-224.90-68.97L-224.90-68.97Q-222.50-68.97-220.60-65.37Q-218.70-61.77-218.70-57.57L-218.70-57.57L-218.70-3.17Q-218.70 4.83-217.30 18.03L-217.30 18.03Q-215.90 34.43-215.90 39.23L-215.90 39.23Q-215.90 54.03-203.30 54.03L-203.30 54.03Q-188.90 54.03-188.90-53.57L-188.90-53.57L-188.90-64.77L-188.90-66.57Q-189.10-67.17-189.10-68.17L-189.10-68.17Q-189.10-70.57-188.00-71.67Q-186.90-72.77-183.70-72.77L-183.70-72.77Q-181.10-72.77-179.60-71.27Q-178.10-69.77-177.70-67.77L-177.70-67.77Q-177.50-66.57-177.50-63.17L-177.50-63.17Q-177.50-59.97-178.10-52.97L-178.10-52.97Q-178.90-47.17-178.90-42.97L-178.90-42.97Q-178.90-38.37-179.30-34.77L-179.30-34.77L-179.70-26.37L-179.70-24.77Q-179.50-23.97-179.50-22.97L-179.50-22.97Q-179.50 65.83-205.30 65.83L-205.30 65.83Z"/><path xml:space="preserve" font-family="Amatic SC" font-size="200" font-style="normal" font-weight="bold" style="stroke: none; stroke-width: 1; stroke-dasharray: none; stroke-linecap: butt; stroke-dashoffset: 0; stroke-linejoin: miter; stroke-miterlimit: 4; is-custom-font: none; font-file-url: none; fill: rgb(255,255,255); fill-rule: nonzero; opacity: 1; white-space: pre;" d="M-139.90 65.43Q-142.50 65.43-144.60 63.63Q-146.70 61.83-146.90 59.23L-146.90 59.23L-146.90 54.03L-146.90 50.03Q-147.10 48.23-147.10 45.83L-147.10 45.83Q-147.10 41.63-147.70 33.03L-147.70 33.03L-148.10 20.23Q-148.10 10.43-147.50-8.97L-147.50-8.97Q-146.70-26.37-146.70-38.17L-146.70-38.17Q-146.70-40.97-147.30-46.57L-147.30-46.57Q-147.90-52.37-147.90-54.97L-147.90-54.97Q-147.90-69.17-139.50-69.17L-139.50-69.17Q-132.90-69.17-124.20-66.57Q-115.50-63.97-115.50-60.37L-115.50-60.37Q-115.50-58.37-117.20-56.67Q-118.90-54.97-121.30-53.97L-121.30-53.97Q-129.70-56.97-136.50-57.97L-136.50-57.97Q-136.30-54.97-136.30-49.37L-136.30-49.37Q-136.30-41.37-136.50-34.97L-136.50-34.97Q-137.10-25.37-137.10-20.57L-137.10-20.57L-136.50-17.37L-133.30-17.57Q-131.70-17.77-129.30-17.77L-129.30-17.77Q-119.70-17.77-119.70-12.17L-119.70-12.17Q-119.70-9.97-121.50-8.47Q-123.30-6.97-126.10-6.97L-126.10-6.97Q-129.70-6.97-131.70-7.37L-131.70-7.37L-136.70-7.37Q-136.30-2.17-136.30 7.83L-136.30 7.83Q-136.30 17.83-136.50 25.83L-136.50 25.83Q-137.10 38.03-137.10 44.03L-137.10 44.03Q-137.10 55.23-136.70 55.23L-136.70 55.23L-130.10 55.03Q-126.70 54.83-121.90 54.83L-121.90 54.83Q-114.30 54.83-114.30 59.63L-114.30 59.63Q-114.30 62.43-116.80 63.93Q-119.30 65.43-122.90 65.43L-122.90 65.43L-139.90 65.43Z"/><path xml:space="preserve" font-family="Amatic SC" font-size="200" font-style="normal" font-weight="bold" style="stroke: none; stroke-width: 1; stroke-dasharray: none; stroke-linecap: butt; stroke-dashoffset: 0; stroke-linejoin: miter; stroke-miterlimit: 4; is-custom-font: none; font-file-url: none; fill: rgb(255,255,255); fill-rule: nonzero; opacity: 1; white-space: pre;" d="M-83.30 65.63Q-86.90 65.03-89.40 63.03Q-91.90 61.03-92.30 57.83L-92.30 57.83L-90.10 54.43Q-88.90 54.43-86.30 55.23L-86.30 55.23Q-83.30 55.83-81.70 55.83L-81.70 55.83Q-78.10 55.83-75.20 52.63Q-72.30 49.43-70.90 44.23L-70.90 44.23Q-68.30 34.63-68.30 27.03L-68.30 27.03Q-68.30 13.83-76.70-0.77L-76.70-0.77L-78.90-4.57Q-82.70-11.17-85.30-16.37Q-87.90-21.57-89.70-27.57L-89.70-27.57Q-92.10-35.37-92.10-43.17L-92.10-43.17Q-92.10-51.97-88.10-61.57L-88.10-61.57Q-86.10-66.17-82.40-69.07Q-78.70-71.97-74.10-71.97L-74.10-71.97Q-70.50-71.97-67.40-69.67Q-64.30-67.37-64.30-64.17L-64.30-64.17Q-64.30-62.37-65.70-61.37Q-67.10-60.37-69.10-60.37L-69.10-60.37Q-71.30-60.37-73.30-61.57L-73.30-61.57Q-77.70-61.37-80.30-53.77L-80.30-53.77Q-82.50-46.77-82.50-42.17L-82.50-42.17Q-82.50-36.37-80.70-30.47Q-78.90-24.57-76.10-19.77L-76.10-19.77L-71.70-11.77L-64.70 1.43Q-61.90 7.03-60.20 14.43Q-58.50 21.83-58.50 29.43L-58.50 29.43Q-58.50 41.63-64.10 52.63L-64.10 52.63Q-66.90 58.23-72.00 61.63Q-77.10 65.03-83.30 65.03L-83.30 65.03L-83.30 65.63Z"/><path xml:space="preserve" font-family="Amatic SC" font-size="200" font-style="normal" font-weight="bold" style="stroke: none; stroke-width: 1; stroke-dasharray: none; stroke-linecap: butt; stroke-dashoffset: 0; stroke-linejoin: miter; stroke-miterlimit: 4; is-custom-font: none; font-file-url: none; fill: rgb(255,255,255); fill-rule: nonzero; opacity: 1; white-space: pre;" d="M7.30 64.63Q2.70 64.63 0.50 63.23Q-1.70 61.83-1.70 58.03L-1.70 58.03Q-1.70 52.03-3.70 37.63L-3.70 37.63L-4.50 33.43L-24.30 30.43Q-25.50 35.03-27.70 49.03L-27.70 49.03Q-28.90 58.83-31.50 62.03L-31.50 62.03Q-32.90 63.83-35.50 63.83L-35.50 63.83Q-37.90 63.83-39.90 62.33Q-41.90 60.83-41.90 58.63L-41.90 58.63L-41.50 57.63L-41.30 56.83Q-28.10 5.43-21.30-44.57L-21.30-44.57Q-21.30-45.37-21.10-47.27Q-20.90-49.17-20.70-52.77L-20.70-52.77Q-20.10-60.17-19.40-64.57Q-18.70-68.97-17.10-71.17L-17.10-71.17L-10.30-71.17Q-7.50-71.17-5.50-69.87Q-3.50-68.57-3.50-66.17L-3.50-66.17Q-3.50-50.97 0.70-20.97L0.70-20.97Q4.70 9.83 4.70 22.23L4.70 22.23Q4.70 23.43 5.70 28.43L5.70 28.43Q6.70 33.03 6.70 34.43L6.70 34.43Q6.70 35.83 8.70 46.43L8.70 46.43Q10.50 56.03 10.50 58.83L10.50 58.83L10.50 59.03Q10.50 63.43 7.30 64.63L7.30 64.63ZM-5.90 26.23Q-6.50 23.23-6.50 18.83L-6.50 18.83Q-6.50 0.83-9.70-27.17L-9.70-27.17L-11.70-47.97Q-20.30-0.97-23.50 23.03L-23.50 23.03Q-20.50 25.03-5.90 26.23L-5.90 26.23Z"/><path xml:space="preserve" font-family="Amatic SC" font-size="200" font-style="normal" font-weight="bold" style="stroke: none; stroke-width: 1; stroke-dasharray: none; stroke-linecap: butt; stroke-dashoffset: 0; stroke-linejoin: miter; stroke-miterlimit: 4; is-custom-font: none; font-file-url: none; fill: rgb(255,255,255); fill-rule: nonzero; opacity: 1; white-space: pre;" d="M39.50 64.03Q34.30 64.03 34.30 37.83L34.30 37.83L34.70 6.23Q34.90-7.77 34.90-25.17L34.90-25.17Q34.90-31.57 33.70-44.97L33.70-44.97Q32.70-59.57 32.70-62.77L32.70-62.77Q32.70-65.37 34.90-67.37Q37.10-69.37 39.70-69.37L39.70-69.37Q46.70-69.37 53.20-66.27Q59.70-63.17 64.70-57.57L64.70-57.57Q75.30-45.37 78.70-30.77L78.70-30.77Q80.50-23.37 80.50-16.17L80.50-16.17Q80.50-13.57 80.30-11.37L80.30-11.37L80.10-5.97L80.10 5.03Q80.10 17.83 79.30 25.23L79.30 25.23Q78.10 35.23 74.70 43.03L74.70 43.03Q70.70 51.43 63.10 58.03L63.10 58.03Q59.50 61.03 53.90 64.03L53.90 64.03L39.50 64.03ZM48.30 53.83Q52.30 53.83 55.70 51.73Q59.10 49.63 61.50 46.03L61.50 46.03Q63.50 42.83 65.20 37.93Q66.90 33.03 67.70 28.43L67.70 28.43Q69.50 19.43 69.90 10.03L69.90 10.03Q70.10 7.63 70.10 3.03L70.10 3.03Q70.10-57.37 46.70-59.97L46.70-59.97Q45.30-50.97 45.30-39.17L45.30-39.17Q45.30-26.57 46.90 4.83L46.90 4.83Q48.30 32.63 48.30 49.03L48.30 49.03L48.30 53.83Z"/><path xml:space="preserve" font-family="Amatic SC" font-size="200" font-style="normal" font-weight="bold" style="stroke: none; stroke-width: 1; stroke-dasharray: none; stroke-linecap: butt; stroke-dashoffset: 0; stroke-linejoin: miter; stroke-miterlimit: 4; is-custom-font: none; font-file-url: none; fill: rgb(255,255,255); fill-rule: nonzero; opacity: 1; white-space: pre;" d="M117.70 62.63Q100.30 62.63 100.30 56.63L100.30 56.63Q100.30 51.83 106.50 51.83L106.50 51.83L108.70 51.83L110.70 52.03Q112.30 52.03 112.90 51.03Q113.50 50.03 113.50 47.43L113.50 47.43Q113.50 44.03 113.10 36.83L113.10 36.83Q112.50 32.03 111.70 19.63L111.70 19.63Q109.90-10.97 109.90-26.57L109.90-26.57Q109.90-32.17 110.10-36.77L110.10-36.77L110.30-46.97Q110.30-53.57 109.70-57.97L109.70-57.97Q106.50-57.17 105.10-57.17L105.10-57.17Q100.30-57.17 100.30-61.97L100.30-61.97Q100.30-64.37 103.30-66.17Q106.30-67.97 110.90-68.77L110.90-68.77Q118.90-70.37 125.10-70.37L125.10-70.37Q127.50-70.37 129.20-68.67Q130.90-66.97 130.90-64.77L130.90-64.77Q130.90-62.57 129.60-60.97Q128.30-59.37 126.30-59.37L126.30-59.37Q125.10-59.37 124.30-59.57L124.30-59.57L122.70-59.57Q120.70-59.57 119.80-58.67Q118.90-57.77 118.90-55.37L118.90-55.37Q118.90-35.97 121.30 3.03L121.30 3.03Q121.70 10.23 122.90 24.23L122.90 24.23Q123.90 33.43 123.90 43.03L123.90 43.03L123.90 50.63Q125.10 50.43 127.90 50.43L127.90 50.43Q136.30 50.43 136.30 57.43L136.30 57.43L136.30 58.63L131.30 62.03Q131.10 62.03 130.00 62.13Q128.90 62.23 125.90 62.23L125.90 62.23Q119.50 62.63 117.70 62.63L117.70 62.63Z"/><path xml:space="preserve" font-family="Amatic SC" font-size="200" font-style="normal" font-weight="bold" style="stroke: none; stroke-width: 1; stroke-dasharray: none; stroke-linecap: butt; stroke-dashoffset: 0; stroke-linejoin: miter; stroke-miterlimit: 4; is-custom-font: none; font-file-url: none; fill: rgb(255,255,255); fill-rule: nonzero; opacity: 1; white-space: pre;" d="M189.10 66.03Q181.90 63.63 171.30 63.63L171.30 63.63Q168.10 65.63 164.50 65.63L164.50 65.63Q162.10 65.63 160.40 63.53Q158.70 61.43 158.70 59.03L158.70 59.03Q158.70 42.23 160.10 14.23L160.10 14.23Q161.30-15.57 161.30-30.37L161.30-30.37L161.30-31.77Q160.10-44.37 160.10-50.57L160.10-50.57Q160.10-69.57 167.10-69.57L167.10-69.57Q169.10-69.57 170.60-68.07Q172.10-66.57 172.10-64.57L172.10-64.57Q172.10-62.17 171.50-56.97L171.50-56.97Q170.90-51.97 170.90-49.37L170.90-49.37Q170.90-35.97 171.10-25.17L171.10-25.17Q171.30-14.57 171.30-1.17L171.30-1.17Q170.30 1.83 170.30 7.23L170.30 7.23L170.30 9.63L169.90 25.43Q169.50 32.43 169.50 41.43L169.50 41.43Q169.50 55.23 176.10 55.23L176.10 55.23Q176.50 55.23 177.40 55.13Q178.30 55.03 179.90 55.03L179.90 55.03Q181.70 54.83 184.50 54.83L184.50 54.83Q195.30 54.83 195.30 60.83L195.30 60.83Q195.30 62.83 193.50 64.23Q191.70 65.63 189.10 66.03L189.10 66.03Z"/><path xml:space="preserve" font-family="Amatic SC" font-size="200" font-style="normal" font-weight="bold" style="stroke: none; stroke-width: 1; stroke-dasharray: none; stroke-linecap: butt; stroke-dashoffset: 0; stroke-linejoin: miter; stroke-miterlimit: 4; is-custom-font: none; font-file-url: none; fill: rgb(255,255,255); fill-rule: nonzero; opacity: 1; white-space: pre;" d="M248.10 66.03Q240.90 63.63 230.30 63.63L230.30 63.63Q227.10 65.63 223.50 65.63L223.50 65.63Q221.10 65.63 219.40 63.53Q217.70 61.43 217.70 59.03L217.70 59.03Q217.70 42.23 219.10 14.23L219.10 14.23Q220.30-15.57 220.30-30.37L220.30-30.37L220.30-31.77Q219.10-44.37 219.10-50.57L219.10-50.57Q219.10-69.57 226.10-69.57L226.10-69.57Q228.10-69.57 229.60-68.07Q231.10-66.57 231.10-64.57L231.10-64.57Q231.10-62.17 230.50-56.97L230.50-56.97Q229.90-51.97 229.90-49.37L229.90-49.37Q229.90-35.97 230.10-25.17L230.10-25.17Q230.30-14.57 230.30-1.17L230.30-1.17Q229.30 1.83 229.30 7.23L229.30 7.23L229.30 9.63L228.90 25.43Q228.50 32.43 228.50 41.43L228.50 41.43Q228.50 55.23 235.10 55.23L235.10 55.23Q235.50 55.23 236.40 55.13Q237.30 55.03 238.90 55.03L238.90 55.03Q240.70 54.83 243.50 54.83L243.50 54.83Q254.30 54.83 254.30 60.83L254.30 60.83Q254.30 62.83 252.50 64.23Q250.70 65.63 248.10 66.03L248.10 66.03Z"/><path xml:space="preserve" font-family="Amatic SC" font-size="200" font-style="normal" font-weight="bold" style="stroke: none; stroke-width: 1; stroke-dasharray: none; stroke-linecap: butt; stroke-dashoffset: 0; stroke-linejoin: miter; stroke-miterlimit: 4; is-custom-font: none; font-file-url: none; fill: rgb(255,255,255); fill-rule: nonzero; opacity: 1; white-space: pre;" d="M315.70 64.63Q311.10 64.63 308.90 63.23Q306.70 61.83 306.70 58.03L306.70 58.03Q306.70 52.03 304.70 37.63L304.70 37.63L303.90 33.43L284.10 30.43Q282.90 35.03 280.70 49.03L280.70 49.03Q279.50 58.83 276.90 62.03L276.90 62.03Q275.50 63.83 272.90 63.83L272.90 63.83Q270.50 63.83 268.50 62.33Q266.50 60.83 266.50 58.63L266.50 58.63L266.90 57.63L267.10 56.83Q280.30 5.43 287.10-44.57L287.10-44.57Q287.10-45.37 287.30-47.27Q287.50-49.17 287.70-52.77L287.70-52.77Q288.30-60.17 289.00-64.57Q289.70-68.97 291.30-71.17L291.30-71.17L298.10-71.17Q300.90-71.17 302.90-69.87Q304.90-68.57 304.90-66.17L304.90-66.17Q304.90-50.97 309.10-20.97L309.10-20.97Q313.10 9.83 313.10 22.23L313.10 22.23Q313.10 23.43 314.10 28.43L314.10 28.43Q315.10 33.03 315.10 34.43L315.10 34.43Q315.10 35.83 317.10 46.43L317.10 46.43Q318.90 56.03 318.90 58.83L318.90 58.83L318.90 59.03Q318.90 63.43 315.70 64.63L315.70 64.63ZM302.50 26.23Q301.90 23.23 301.90 18.83L301.90 18.83Q301.90 0.83 298.70-27.17L298.70-27.17L296.70-47.97Q288.10-0.97 284.90 23.03L284.90 23.03Q287.90 25.03 302.50 26.23L302.50 26.23Z"/></g>
</svg>